<svg width="44" height="19" viewBox="0 0 44 19" fill="none" xmlns="http://www.w3.org/2000/svg">
<path d="M9.112 0.912L14.968 15.984C15.192 16.576 15.448 16.976 15.736 17.184C16.04 17.392 16.32 17.504 16.576 17.52V18C16.192 17.968 15.736 17.952 15.208 17.952C14.696 17.936 14.176 17.928 13.648 17.928C12.976 17.928 12.352 17.936 11.776 17.952C11.2 17.952 10.736 17.968 10.384 18V17.52C11.2 17.488 11.712 17.352 11.92 17.112C12.144 16.856 12.096 16.32 11.776 15.504L7.456 3.84L7.84 3.408L3.856 13.824C3.568 14.544 3.392 15.144 3.328 15.624C3.28 16.104 3.32 16.48 3.448 16.752C3.592 17.024 3.832 17.216 4.168 17.328C4.504 17.44 4.92 17.504 5.416 17.52V18C4.936 17.968 4.448 17.952 3.952 17.952C3.472 17.936 3.016 17.928 2.584 17.928C2.2 17.928 1.856 17.936 1.552 17.952C1.264 17.952 1 17.968 0.76 18V17.52C1.096 17.44 1.432 17.24 1.768 16.92C2.104 16.6 2.424 16.056 2.728 15.288L8.296 0.912C8.424 0.912 8.56 0.912 8.704 0.912C8.848 0.912 8.984 0.912 9.112 0.912ZM11.632 11.088V11.568H4.48L4.72 11.088H11.632ZM23.4657 1.008V1.488C22.9217 1.504 22.5057 1.568 22.2177 1.68C21.9457 1.776 21.7617 1.968 21.6657 2.256C21.5697 2.528 21.5217 2.96 21.5217 3.552V15.552C21.5217 16.096 21.5617 16.504 21.6417 16.776C21.7377 17.048 21.9137 17.232 22.1697 17.328C22.4417 17.408 22.8257 17.448 23.3217 17.448H24.8817C25.5697 17.448 26.1457 17.352 26.6097 17.16C27.0897 16.968 27.4897 16.68 27.8097 16.296C28.1297 15.912 28.3777 15.416 28.5537 14.808C28.7297 14.2 28.8657 13.488 28.9617 12.672H29.5137C29.4657 13.184 29.4417 13.856 29.4417 14.688C29.4417 15.008 29.4497 15.48 29.4657 16.104C29.4977 16.712 29.5457 17.344 29.6097 18C28.7937 17.968 27.8737 17.952 26.8497 17.952C25.8257 17.936 24.9137 17.928 24.1137 17.928C23.7457 17.928 23.2737 17.928 22.6977 17.928C22.1217 17.928 21.4977 17.936 20.8257 17.952C20.1697 17.952 19.4977 17.96 18.8097 17.976C18.1377 17.976 17.4897 17.984 16.8657 18V17.52C17.4097 17.488 17.8177 17.424 18.0897 17.328C18.3617 17.232 18.5377 17.04 18.6177 16.752C18.7137 16.464 18.7617 16.032 18.7617 15.456V3.552C18.7617 2.96 18.7137 2.528 18.6177 2.256C18.5377 1.968 18.3537 1.776 18.0657 1.68C17.7937 1.568 17.3937 1.504 16.8657 1.488V1.008C17.2337 1.024 17.7057 1.04 18.2817 1.056C18.8737 1.072 19.5057 1.08 20.1777 1.08C20.7857 1.08 21.3857 1.072 21.9777 1.056C22.5857 1.04 23.0817 1.024 23.4657 1.008ZM37.7146 1.008V1.488C37.1866 1.504 36.7866 1.568 36.5146 1.68C36.2426 1.776 36.0586 1.968 35.9626 2.256C35.8666 2.528 35.8186 2.96 35.8186 3.552V15.456C35.8186 16.032 35.8666 16.464 35.9626 16.752C36.0586 17.04 36.2426 17.232 36.5146 17.328C36.7866 17.424 37.1866 17.488 37.7146 17.52V18C37.3306 17.968 36.8426 17.952 36.2506 17.952C35.6746 17.936 35.0826 17.928 34.4746 17.928C33.8026 17.928 33.1706 17.936 32.5786 17.952C32.0026 17.952 31.5306 17.968 31.1626 18V17.52C31.7066 17.488 32.1146 17.424 32.3866 17.328C32.6586 17.232 32.8346 17.04 32.9146 16.752C33.0106 16.464 33.0586 16.032 33.0586 15.456V3.552C33.0586 2.96 33.0106 2.528 32.9146 2.256C32.8346 1.968 32.6506 1.776 32.3626 1.68C32.0906 1.568 31.6906 1.504 31.1626 1.488V1.008C31.5306 1.024 32.0026 1.04 32.5786 1.056C33.1706 1.072 33.8026 1.08 34.4746 1.08C35.0826 1.08 35.6746 1.072 36.2506 1.056C36.8426 1.04 37.3306 1.024 37.7146 1.008ZM41.7366 15.048C42.2166 15.048 42.6166 15.208 42.9366 15.528C43.2726 15.832 43.4406 16.224 43.4406 16.704C43.4406 17.168 43.2726 17.56 42.9366 17.88C42.6166 18.184 42.2166 18.336 41.7366 18.336C41.2566 18.336 40.8486 18.184 40.5126 17.88C40.1926 17.56 40.0326 17.168 40.0326 16.704C40.0326 16.224 40.1926 15.832 40.5126 15.528C40.8486 15.208 41.2566 15.048 41.7366 15.048Z" fill="black"/>
</svg>
